<?xml version="1.0" encoding="utf-8"?>
<!-- Generator: Adobe Illustrator 16.0.0, SVG Export Plug-In . SVG Version: 6.00 Build 0)  -->
<!DOCTYPE svg PUBLIC "-//W3C//DTD SVG 1.1//EN" "http://www.w3.org/Graphics/SVG/1.1/DTD/svg11.dtd">
<svg version="1.1" id="Capa_1" xmlns="http://www.w3.org/2000/svg" xmlns:xlink="http://www.w3.org/1999/xlink" x="0px" y="0px"
	 viewBox="-0.5 19.479 463.712 671.1" enable-background="new -0.5 19.479 463.712 671.1"
	 xml:space="preserve">
<g>
	<g>
		<path fill="#B573B3" stroke="#B573B3" stroke-miterlimit="10" d="M183.322,72.299c-10.68-14.689-7.419-35.329,7.261-46
			c5.69-4.141,12.391-6.319,19.38-6.319c10.521,0,20.48,5.069,26.65,13.59l219.77,302.05c8.44,11.58,8.44,27.141-0.01,38.73
			l-219.79,302.17c-6.11,8.49-16.04,13.561-26.56,13.561c-7.011,0-13.74-2.19-19.44-6.32c-14.68-10.68-17.95-31.32-7.271-46.02
			L384.703,360.85c2.55-3.5,2.55-8.24,0-11.75L183.322,72.299z"/>
	</g>
	<g>
		<path fill="#B573B3" stroke="#B573B3" stroke-miterlimit="10" d="M6.292,72.299c-10.68-14.689-7.419-35.329,7.261-46
			c5.69-4.141,12.391-6.319,19.38-6.319c10.521,0,20.48,5.069,26.65,13.59l219.77,302.05c8.44,11.58,8.44,27.141-0.01,38.73
			L59.553,676.52c-6.109,8.49-16.04,13.561-26.56,13.561c-7.011,0-13.74-2.19-19.44-6.32c-14.68-10.68-17.95-31.32-7.271-46.02
			L207.673,360.85c2.55-3.5,2.55-8.24,0-11.75L6.292,72.299z"/>
	</g>
</g>
</svg>
